<svg width="24" height="23" viewBox="0 0 24 23" fill="none" xmlns="http://www.w3.org/2000/svg">
<path d="M17.8335 20.3333H6.16683V21.5C6.16683 21.8094 6.04391 22.1062 5.82512 22.325C5.60633 22.5438 5.30958 22.6667 5.00016 22.6667H2.66683C2.35741 22.6667 2.06066 22.5438 1.84187 22.325C1.62308 22.1062 1.50016 21.8094 1.50016 21.5V11H0.333496V6.33333H1.50016V2.83333C1.50016 2.21449 1.746 1.621 2.18358 1.18342C2.62116 0.745833 3.21466 0.5 3.8335 0.5H20.1668C20.7857 0.5 21.3792 0.745833 21.8167 1.18342C22.2543 1.621 22.5002 2.21449 22.5002 2.83333V6.33333H23.6668V11H22.5002V21.5C22.5002 21.8094 22.3772 22.1062 22.1585 22.325C21.9397 22.5438 21.6429 22.6667 21.3335 22.6667H19.0002C18.6907 22.6667 18.394 22.5438 18.1752 22.325C17.9564 22.1062 17.8335 21.8094 17.8335 21.5V20.3333ZM3.8335 2.83333V11H20.1668V2.83333H3.8335ZM6.75016 18C7.21429 18 7.65941 17.8156 7.9876 17.4874C8.31579 17.1592 8.50016 16.7141 8.50016 16.25C8.50016 15.7859 8.31579 15.3408 7.9876 15.0126C7.65941 14.6844 7.21429 14.5 6.75016 14.5C6.28603 14.5 5.84091 14.6844 5.51273 15.0126C5.18454 15.3408 5.00016 15.7859 5.00016 16.25C5.00016 16.7141 5.18454 17.1592 5.51273 17.4874C5.84091 17.8156 6.28603 18 6.75016 18V18ZM17.2502 18C17.7143 18 18.1594 17.8156 18.4876 17.4874C18.8158 17.1592 19.0002 16.7141 19.0002 16.25C19.0002 15.7859 18.8158 15.3408 18.4876 15.0126C18.1594 14.6844 17.7143 14.5 17.2502 14.5C16.786 14.5 16.3409 14.6844 16.0127 15.0126C15.6845 15.3408 15.5002 15.7859 15.5002 16.25C15.5002 16.7141 15.6845 17.1592 16.0127 17.4874C16.3409 17.8156 16.786 18 17.2502 18Z" fill="#FF5C5C"/>
</svg>
