<svg width="20" height="20" viewBox="0 0 20 20" fill="none" xmlns="http://www.w3.org/2000/svg">
<path fill-rule="evenodd" clip-rule="evenodd" d="M3.77742 4.43743L4.43738 3.77746C7.50951 0.705336 12.4904 0.705336 15.5625 3.77746L16.2225 4.43743C19.2946 7.50955 19.2946 12.4904 16.2225 15.5626L15.5625 16.2225C12.4904 19.2947 7.50951 19.2947 4.43738 16.2225L3.77742 15.5626C0.705292 12.4904 0.705292 7.50955 3.77742 4.43743ZM10.8838 10L12.7989 8.08492C13.043 7.84084 13.043 7.44511 12.7989 7.20104C12.5548 6.95696 12.1591 6.95696 11.915 7.20104L9.99996 9.11612L8.08488 7.20104C7.8408 6.95696 7.44507 6.95696 7.20099 7.20104C6.95691 7.44511 6.95691 7.84084 7.20099 8.08492L9.11607 10L7.20099 11.9151C6.95691 12.1592 6.95691 12.5549 7.20099 12.799C7.44507 13.043 7.8408 13.043 8.08488 12.799L9.99996 10.8839L11.915 12.799C12.1591 13.043 12.5548 13.043 12.7989 12.799C13.043 12.5549 13.043 12.1592 12.7989 11.9151L10.8838 10Z" fill="#596070"/>
</svg>
