<svg width="16" height="16" viewBox="0 0 16 16" fill="none" xmlns="http://www.w3.org/2000/svg">
<path fill-rule="evenodd" clip-rule="evenodd" d="M0.457577 15.5425C-0.0631223 15.0218 -0.110023 14.2245 0.35282 13.7617L13.7617 0.35282C14.2245 -0.110024 15.0218 -0.063122 15.5425 0.457577C16.0632 0.978276 16.1101 1.77559 15.6473 2.23844L2.23844 15.6473C1.77559 16.1101 0.978276 16.0632 0.457577 15.5425Z" fill="#6E7687"/>
<path fill-rule="evenodd" clip-rule="evenodd" d="M0.457577 0.457577C0.978275 -0.0631214 1.77559 -0.110022 2.23844 0.352821L15.6473 13.7617C16.1101 14.2245 16.0632 15.0218 15.5425 15.5425C15.0218 16.0632 14.2245 16.1101 13.7617 15.6473L0.35282 2.23844C-0.110023 1.7756 -0.0631223 0.978276 0.457577 0.457577Z" fill="#6E7687"/>
</svg>
