<svg width="18" height="18" viewBox="0 0 18 18" fill="none" xmlns="http://www.w3.org/2000/svg">
<path d="M9 18C4.0293 18 0 13.9707 0 9C0 4.0293 4.0293 0 9 0C13.9707 0 18 4.0293 18 9C18 13.9707 13.9707 18 9 18ZM9 11.7C9.71608 11.7 10.4028 11.4155 10.9092 10.9092C11.4155 10.4028 11.7 9.71608 11.7 9C11.7 8.28392 11.4155 7.59716 10.9092 7.09081C10.4028 6.58446 9.71608 6.3 9 6.3C8.28392 6.3 7.59716 6.58446 7.09081 7.09081C6.58446 7.59716 6.3 8.28392 6.3 9C6.3 9.71608 6.58446 10.4028 7.09081 10.9092C7.59716 11.4155 8.28392 11.7 9 11.7Z" fill="#B5B9C4"/>
</svg>
