<svg width="46" height="46" viewBox="0 0 46 46" fill="none" xmlns="http://www.w3.org/2000/svg">
<path d="M13.7959 15.6367C13.7959 10.5531 17.9169 6.43213 23.0004 6.43213C28.084 6.43213 32.205 10.5531 32.205 15.6367V23.0003C32.205 28.0838 28.084 32.2049 23.0004 32.2049C17.9169 32.2049 13.7959 28.0838 13.7959 23.0003V15.6367Z" fill="white"/>
<path d="M11.4948 23.0003C11.4948 22.2378 10.8766 21.6196 10.1141 21.6196C9.35155 21.6196 8.7334 22.2378 8.7334 23.0003C8.7334 30.8798 15.121 37.2674 23.0004 37.2674C30.8799 37.2674 37.2675 30.8798 37.2675 23.0003C37.2675 22.2378 36.6493 21.6196 35.8868 21.6196C35.1243 21.6196 34.5061 22.2378 34.5061 23.0003C34.5061 29.3547 29.3549 34.506 23.0004 34.506C16.646 34.506 11.4948 29.3547 11.4948 23.0003Z" fill="white"/>
<path fill-rule="evenodd" clip-rule="evenodd" d="M15.6368 40.0287C15.6368 39.2662 16.255 38.648 17.0175 38.648H28.9834C29.7459 38.648 30.3641 39.2662 30.3641 40.0287C30.3641 40.7912 29.7459 41.4094 28.9834 41.4094H17.0175C16.255 41.4094 15.6368 40.7912 15.6368 40.0287Z" fill="white"/>
<path fill-rule="evenodd" clip-rule="evenodd" d="M21.6198 39.5685V35.8867H24.3811V39.5685H21.6198Z" fill="white"/>
</svg>
