<svg width="22" height="21" viewBox="0 0 22 21" fill="none" xmlns="http://www.w3.org/2000/svg">
<path d="M11.26 17.2598C11.1001 17.1622 10.899 17.1622 10.7391 17.2598L4.81473 20.8741C4.43512 21.1057 3.96472 20.7637 4.06799 20.3311L5.67822 13.5873C5.7218 13.4048 5.65953 13.2133 5.51696 13.0913L0.247802 8.58278C-0.0902537 8.29352 0.0894845 7.73995 0.532983 7.70446L7.45054 7.15086C7.6374 7.13591 7.80019 7.01769 7.87224 6.84464L10.538 0.441935C10.7088 0.0315088 11.2903 0.031509 11.4611 0.441936L14.1269 6.84463C14.1989 7.01769 14.3617 7.13591 14.5486 7.15086L21.4672 7.70446C21.9107 7.73995 22.0904 8.29357 21.7523 8.58281L16.4822 13.0913C16.3396 13.2133 16.2773 13.4049 16.3209 13.5874L17.9311 20.3311C18.0344 20.7637 17.564 21.1057 17.1844 20.8741L11.26 17.2598Z" fill="#FF802E"/>
</svg>
