<svg width="20" height="24" viewBox="0 0 20 24" fill="none" xmlns="http://www.w3.org/2000/svg">
<path fill-rule="evenodd" clip-rule="evenodd" d="M2.5 7.0625C3.01777 7.0625 3.4375 7.48223 3.4375 8V21.75C3.4375 21.9226 3.57741 22.0625 3.75 22.0625H16.25C16.4226 22.0625 16.5625 21.9226 16.5625 21.75V8C16.5625 7.48223 16.9822 7.0625 17.5 7.0625C18.0178 7.0625 18.4375 7.48223 18.4375 8V21.75C18.4375 22.9581 17.4581 23.9375 16.25 23.9375H3.75C2.54188 23.9375 1.5625 22.9581 1.5625 21.75V8C1.5625 7.48223 1.98223 7.0625 2.5 7.0625Z" fill="#FF5C5C"/>
<path fill-rule="evenodd" clip-rule="evenodd" d="M0 4.5625C0 4.04473 0.419733 3.625 0.9375 3.625H19.0625C19.5803 3.625 20 4.04473 20 4.5625C20 5.08027 19.5803 5.5 19.0625 5.5H0.9375C0.419733 5.5 0 5.08027 0 4.5625Z" fill="#FF5C5C"/>
<path fill-rule="evenodd" clip-rule="evenodd" d="M6.5625 3C6.5625 1.79188 7.54188 0.8125 8.75 0.8125H11.25C12.4581 0.8125 13.4375 1.79188 13.4375 3V4.25H11.5625V3C11.5625 2.82741 11.4226 2.6875 11.25 2.6875H8.75C8.57741 2.6875 8.4375 2.82741 8.4375 3V4.25H6.5625V3Z" fill="#FF5C5C"/>
<path fill-rule="evenodd" clip-rule="evenodd" d="M7.5 8.3125C8.01777 8.3125 8.4375 8.73223 8.4375 9.25V18C8.4375 18.5178 8.01777 18.9375 7.5 18.9375C6.98223 18.9375 6.5625 18.5178 6.5625 18V9.25C6.5625 8.73223 6.98223 8.3125 7.5 8.3125Z" fill="#FF5C5C"/>
<path fill-rule="evenodd" clip-rule="evenodd" d="M12.5 8.3125C13.0178 8.3125 13.4375 8.73223 13.4375 9.25V18C13.4375 18.5178 13.0178 18.9375 12.5 18.9375C11.9822 18.9375 11.5625 18.5178 11.5625 18V9.25C11.5625 8.73223 11.9822 8.3125 12.5 8.3125Z" fill="#FF5C5C"/>
</svg>
